<?xml version="1.0" standalone="no"?><!DOCTYPE svg PUBLIC "-//W3C//DTD SVG 1.1//EN" "http://www.w3.org/Graphics/SVG/1.1/DTD/svg11.dtd"><svg t="1552726334844" class="icon" style="" viewBox="0 0 1024 1024" version="1.1" xmlns="http://www.w3.org/2000/svg" p-id="10140" xmlns:xlink="http://www.w3.org/1999/xlink" width="48" height="48"><defs><style type="text/css">@font-face { font-family: rbicon; src: url("chrome-extension://dipiagiiohfljcicegpgffpbnjmgjcnf/fonts/rbicon.woff2") format("woff2"); font-weight: normal; font-style: normal; }
</style></defs><path d="M108.544 108.544h808.96v808.96H108.544z" fill="#FFEA00" p-id="10141"></path><path d="M413.696 329.728l-124.928 376.832h61.44l32.768-108.544H512l32.768 108.544h63.488l-124.928-376.832h-69.632z m83.968 221.184h-102.4l16.384-51.2c12.288-40.96 24.576-81.92 34.816-124.928h2.048c12.288 43.008 22.528 83.968 36.864 124.928l12.288 51.2zM942.08 0H81.92C36.864 0 0 36.864 0 81.92v860.16c0 45.056 36.864 81.92 81.92 81.92h860.16c45.056 0 81.92-36.864 81.92-81.92V81.92c0-45.056-36.864-81.92-81.92-81.92z m20.48 921.6c0 22.528-18.432 40.96-40.96 40.96H102.4c-22.528 0-40.96-18.432-40.96-40.96V102.4c0-22.528 18.432-40.96 40.96-40.96h819.2c22.528 0 40.96 18.432 40.96 40.96v819.2zM657.408 706.56H716.8V329.728h-59.392v376.832z" fill="" p-id="10142"></path></svg>