<?xml version="1.0" standalone="no"?><!DOCTYPE svg PUBLIC "-//W3C//DTD SVG 1.1//EN" "http://www.w3.org/Graphics/SVG/1.1/DTD/svg11.dtd"><svg t="1552725028096" class="icon" style="" viewBox="0 0 1024 1024" version="1.1" xmlns="http://www.w3.org/2000/svg" p-id="9302" xmlns:xlink="http://www.w3.org/1999/xlink" width="48" height="48"><defs><style type="text/css">@font-face { font-family: rbicon; src: url("chrome-extension://dipiagiiohfljcicegpgffpbnjmgjcnf/fonts/rbicon.woff2") format("woff2"); font-weight: normal; font-style: normal; }
</style></defs><path d="M839.4 913.3h-648c-42 0-76-34-76-76v-648c0-42 34-76 76-76h648c42 0 76 34 76 76v648c0 42-34 76-76 76z" fill="#51D4FF" p-id="9303"></path><path d="M796.4 838.3h-562c-24.3 0-44-19.7-44-44v-562c0-24.3 19.7-44 44-44h562c24.3 0 44 19.7 44 44v562c0 24.3-19.7 44-44 44z" fill="#2D4B5D" p-id="9304"></path><path d="M330.1 353.5c20.2-3.4 48.6-6 88.6-6 40.4 0 69.2 7.7 88.6 23.7 18.9 14.2 31 38.3 31 66.7 0 28.8-9 52.9-26.7 68.8-22.4 20.6-55.5 30.5-94.2 30.5-8.6 0-16.3-0.4-22.4-1.7v104.1h-64.9V353.5zM395 485.2c5.6 1.3 12 1.7 21.9 1.7 34.8 0 56.3-17.6 56.3-46.9 0-26.7-18.5-42.6-51.6-42.6-12.9 0-21.9 0.9-26.7 2.2v85.6zM568.3 582.4c12 7.3 37 15.5 56.3 15.5 19.8 0 28-6.5 28-17.2 0-10.8-6.5-16.3-30.5-24.1-43.9-14.6-60.6-38.3-60.2-62.8 0-39.6 33.5-69.2 85.6-69.2 24.5 0 46 6 58.9 12.5l-11.2 44.7c-9.5-4.7-28-11.6-45.6-11.6-15.9 0-24.9 6.5-24.9 16.8 0 9.9 8.2 15.5 34 24.1 40 13.8 56.3 34 56.8 64.5 0 39.6-30.5 68.4-90.8 68.4-27.5 0-52-6.5-68-15.1l11.6-46.5z" fill="#FFFFFF" p-id="9305"></path></svg>