<?xml version="1.0" standalone="no"?><!DOCTYPE svg PUBLIC "-//W3C//DTD SVG 1.1//EN" "http://www.w3.org/Graphics/SVG/1.1/DTD/svg11.dtd"><svg t="1554367084496" class="icon" style="" viewBox="0 0 1024 1024" version="1.1" xmlns="http://www.w3.org/2000/svg" p-id="11443" xmlns:xlink="http://www.w3.org/1999/xlink" width="32" height="32"><defs><style type="text/css"></style></defs><path d="M512 0C229.23 0 0 229.23 0 512s229.23 512 512 512 512-229.23 512-512S794.77 0 512 0zM256 256h512c9.138 0 18.004 1.962 26.144 5.662L512 590.83 229.856 261.66A63.096 63.096 0 0 1 256 256zM192 704V320c0-1.34 0.056-2.672 0.14-4l187.664 218.942-185.598 185.598A63.268 63.268 0 0 1 192 704z m576 64H256c-5.654 0-11.202-0.762-16.54-2.208l182.118-182.118L512 689.172l90.424-105.494 182.116 182.12A63.458 63.458 0 0 1 768 768z m64-64c0 5.654-0.762 11.2-2.206 16.54l-185.6-185.598L831.86 316c0.084 1.328 0.14 2.66 0.14 4v384z" fill="#ffb80a" p-id="11444"></path></svg>