<?xml version="1.0" standalone="no"?><!DOCTYPE svg PUBLIC "-//W3C//DTD SVG 1.1//EN" "http://www.w3.org/Graphics/SVG/1.1/DTD/svg11.dtd"><svg t="1554367210335" class="icon" style="" viewBox="0 0 1024 1024" version="1.1" xmlns="http://www.w3.org/2000/svg" p-id="13438" xmlns:xlink="http://www.w3.org/1999/xlink" width="32" height="32"><defs><style type="text/css"></style></defs><path d="M510.852107 1021.673516c-282.116923 0-510.827164-228.710753-510.827164-510.83663 0-282.121911 228.710242-510.83663 510.827164-510.83663 282.126388 0 510.836118 228.714719 510.836118 510.83663C1021.688226 792.96289 792.978624 1021.673516 510.852107 1021.673516zM740.715102 285.834718c0-11.265823-2.582311-21.834646-7.575912-31.63548-4.931691-9.871825-11.738973-18.586931-20.539014-25.908424-8.774074-7.500443-19.074025-13.294013-30.724098-17.46168-11.829024-4.266159-24.497414-6.486092-37.934307-6.486092L377.772037 204.343043c-13.526304 0-26.105283 2.219933-37.933795 6.486092-11.650074 4.167666-21.951047 9.961236-30.724098 17.46168-8.800041 7.321493-15.643394 16.036599-20.602075 25.908424-4.994113 9.800833-7.513362 20.369657-7.513362 31.63548l0 450.701462c0 11.158375 2.519249 21.736281 7.513362 31.286788 4.958681 9.702468 11.802034 18.15369 20.602075 25.65861 8.773051 7.32597 19.074025 13.115063 30.724098 17.448121 11.828512 4.270125 24.407491 6.396681 37.933795 6.396681l266.169735 0c13.436892 0 26.105283-2.126556 37.934307-6.396681 11.650074-4.333058 21.959106-10.122151 30.732157-17.448121 8.791982-7.50492 15.608346-15.956142 20.531083-25.65861 4.993601-9.550507 7.575912-20.128285 7.575912-31.286788l0 0L740.71523 285.834718 740.715102 285.834718zM340.91898 318.04133l338.991329 0 0 385.501189L340.91898 703.542519 340.91898 318.04133zM558.389877 272.353312l-95.155358 0c-2.966434 0-5.753533-1.000792-8.192453-3.050984-2.608789-2.055053-3.904293-4.873747-3.904293-8.438302 0-3.596022 1.464989-6.396681 4.172143-8.362322 2.751668-2.041622 5.404842-2.979481 7.924603-2.979481l95.155358 0c3.055973 0 5.754045 0.937859 8.309366 2.979481 2.581287 1.965641 3.78738 4.7663 3.78738 8.362322 0 3.564556-1.206221 6.383122-3.78738 8.438302C564.143922 271.35252 561.445722 272.353312 558.389877 272.353312zM510.530406 722.4028c10.980576 0 20.191346 3.483587 27.70522 10.131105 7.512851 6.736418 11.202378 15.080704 11.202378 24.890108 0 9.443572-3.689527 17.636025-11.202378 24.55037-7.513874 6.897333-16.724644 10.380919-27.70522 10.380919-10.55987 0-19.690182-3.483587-27.462825-10.380919-7.682847-6.914345-11.560151-15.09874-11.560151-24.55037 0-9.809403 3.877431-18.15369 11.560151-24.890108C490.840223 725.886387 499.970536 722.4028 510.530406 722.4028z" p-id="13439" fill="#ffb80a"></path></svg>