<?xml version="1.0" standalone="no"?><!DOCTYPE svg PUBLIC "-//W3C//DTD SVG 1.1//EN" "http://www.w3.org/Graphics/SVG/1.1/DTD/svg11.dtd"><svg t="1554366943742" class="icon" style="" viewBox="0 0 1024 1024" version="1.1" xmlns="http://www.w3.org/2000/svg" p-id="9267" xmlns:xlink="http://www.w3.org/1999/xlink" width="32" height="32"><defs><style type="text/css"></style></defs><path d="M597.312 533.28c-14.784 0-29.696 14.88-29.696 29.664 0 14.976 14.912 29.664 29.696 29.664 22.432 0 37.12-14.688 37.12-29.664 0-14.784-14.688-29.664-37.12-29.664z m-304.096-215.04c-22.24 0-44.672 14.688-44.672 36.992 0 22.208 22.464 37.088 44.672 37.088 22.24 0 37.024-14.88 37.024-37.088 0-22.304-14.784-36.992-37.024-36.992z m207.616 74.08c22.336 0 37.12-14.88 37.12-37.088 0-22.304-14.784-36.992-37.12-36.992-22.24 0-44.544 14.688-44.544 36.992 0 22.208 22.304 37.088 44.544 37.088zM853.344 0H170.656A170.656 170.656 0 0 0 0 170.656v682.656A170.688 170.688 0 0 0 170.656 1024h682.656A170.688 170.688 0 0 0 1024 853.344V170.656A170.656 170.656 0 0 0 853.344 0zM389.6 696.544c-37.024 0-66.784-7.552-103.936-14.88l-103.68 51.968 29.664-89.184c-74.272-51.872-118.72-118.72-118.72-200.16 0-141.056 133.6-252.16 296.672-252.16 145.888 0 273.664 88.736 299.328 208.224a256.544 256.544 0 0 0-28.576-1.76c-140.928 0-252.224 105.12-252.224 234.656 0 21.536 3.36 42.304 9.152 62.112-9.152 0.736-18.4 1.184-27.68 1.184z m437.568 103.872l22.304 74.08-81.344-44.544c-29.664 7.424-59.488 14.88-89.024 14.88-141.152 0-252.32-96.416-252.32-215.136 0-118.528 111.168-215.168 252.32-215.168 133.312 0 251.968 96.608 251.968 215.168 0 66.848-44.352 126.08-103.904 170.72z m-66.688-267.136c-14.688 0-29.472 14.88-29.472 29.664 0 14.976 14.784 29.664 29.472 29.664 22.24 0 37.12-14.688 37.12-29.664 0-14.784-14.88-29.664-37.12-29.664z" fill="#ffb80a" p-id="9268"></path></svg>